<?xml version="1.0" encoding="UTF-8"?>
<!DOCTYPE svg PUBLIC "-//W3C//DTD SVG 1.1//EN" "http://www.w3.org/Graphics/SVG/1.1/DTD/svg11.dtd">
<svg xmlns="http://www.w3.org/2000/svg" version="1.1" width="46px" height="46px" style="shape-rendering:geometricPrecision; text-rendering:geometricPrecision; image-rendering:optimizeQuality; fill-rule:evenodd; clip-rule:evenodd" xmlns:xlink="http://www.w3.org/1999/xlink">
<g><path style="opacity:0.397" fill="#DC3545" d="M 6.5,-0.5 C 9.83333,-0.5 13.1667,-0.5 16.5,-0.5C 14.1636,1.2792 11.3303,2.2792 8,2.5C 5.71969,2.10575 5.21969,1.10575 6.5,-0.5 Z"/></g>
<g><path style="opacity:0.38" fill="#DC3545" d="M 28.5,-0.5 C 31.8333,-0.5 35.1667,-0.5 38.5,-0.5C 39.7803,1.10575 39.2803,2.10575 37,2.5C 33.6697,2.2792 30.8364,1.2792 28.5,-0.5 Z"/></g>
<g><path style="opacity:0.379" fill="#DC3545" d="M -0.5,17.5 C -0.5,13.8333 -0.5,10.1667 -0.5,6.5C 1.10575,5.21969 2.10575,5.71969 2.5,8C 2.27191,11.6409 1.27191,14.8076 -0.5,17.5 Z"/></g>
<g><path style="opacity:0.4" fill="#DC3545" d="M 45.5,6.5 C 45.5,10.1667 45.5,13.8333 45.5,17.5C 43.7281,14.8076 42.7281,11.6409 42.5,8C 42.8942,5.71969 43.8942,5.21969 45.5,6.5 Z"/></g>
<g><path style="opacity:0.388" fill="#DC3545" d="M -0.5,27.5 C 1.27191,30.1924 2.27191,33.3591 2.5,37C 2.10575,39.2803 1.10575,39.7803 -0.5,38.5C -0.5,34.8333 -0.5,31.1667 -0.5,27.5 Z"/></g>
<g><path style="opacity:0.379" fill="#DC3545" d="M 45.5,27.5 C 45.5,31.1667 45.5,34.8333 45.5,38.5C 43.8942,39.7803 42.8942,39.2803 42.5,37C 42.7281,33.3591 43.7281,30.1924 45.5,27.5 Z"/></g>
<g><path style="opacity:0.391" fill="#DC3545" d="M 16.5,45.5 C 13.1667,45.5 9.83333,45.5 6.5,45.5C 5.21969,43.8942 5.71969,42.8942 8,42.5C 11.3303,42.7208 14.1636,43.7208 16.5,45.5 Z"/></g>
<g><path style="opacity:0.385" fill="#DC3545" d="M 38.5,45.5 C 35.1667,45.5 31.8333,45.5 28.5,45.5C 30.8364,43.7208 33.6697,42.7208 37,42.5C 39.2803,42.8942 39.7803,43.8942 38.5,45.5 Z"/></g>
</svg>
